<svg xmlns="http://www.w3.org/2000/svg" xmlns:xlink="http://www.w3.org/1999/xlink" xmlns:lucid="lucid" width="1180" height="1260"><g transform="translate(-80 -12)" lucid:page-tab-id="0_0"><path d="M0 0h1870.4v1323.2H0z" fill="#fff"/><path d="M209.75 189.75c0 10.9-8.84 19.75-19.75 19.75-10.9 0-19.75-8.84-19.75-19.75 0-10.9 8.84-19.75 19.75-19.75 10.9 0 19.75 8.84 19.75 19.75z" stroke="#000" stroke-width="2" fill="#fff"/><path d="M140 175c0-2.76 2.24-5 5-5h90c2.76 0 5 2.24 5 5v148c0 2.76-2.24 5-5 5h-90c-2.76 0-5-2.24-5-5z" fill="none"/><path d="M190 209.5v50.3c0 2.76 1.4 6.76 3.1 8.92L240 328m-50-63.2L140 328m0-98.75h100" stroke="#000" stroke-width="2" fill="none"/><use xlink:href="#a" transform="matrix(1,0,0,1,60,328) translate(99.07499999999999 14.6)"/><path d="M680 112c0 33.14-35.82 60-80 60s-80-26.86-80-60 35.82-60 80-60 80 26.86 80 60z" stroke="#000" stroke-width="2" fill="#fff"/><use xlink:href="#b" transform="matrix(1,0,0,1,520,52) translate(28.07999999999999 51.9)"/><use xlink:href="#c" transform="matrix(1,0,0,1,520,52) translate(111.93 51.9)"/><use xlink:href="#d" transform="matrix(1,0,0,1,520,52) translate(49.05499999999999 73.5)"/><path d="M159.75 1039.75c0 10.9-8.84 19.75-19.75 19.75-10.9 0-19.75-8.84-19.75-19.75 0-10.9 8.84-19.75 19.75-19.75 10.9 0 19.75 8.84 19.75 19.75z" stroke="#000" stroke-width="2" fill="#fff"/><path d="M100 1025c0-2.76 2.24-5 5-5h70c2.76 0 5 2.24 5 5v148c0 2.76-2.24 5-5 5h-70c-2.76 0-5-2.24-5-5z" fill="none"/><path d="M140 1059.5v50.3c0 2.76 1.2 6.9 2.67 9.22L180 1178m-40-63.2l-40 63.2m0-98.75h80" stroke="#000" stroke-width="2" fill="none"/><use xlink:href="#e" transform="matrix(1,0,0,1,20,1178) translate(92.075 14.6)"/><path d="M140 1019" stroke="#000" stroke-width="2" fill="none"/><path/><path/><path d="M140 1018l2.85-667.63" stroke="#000" stroke-width="2" fill="none"/><path d="M141 1017.98v1.14l-.95-.12-1.05.03v-1.06z"/><path d="M142.94 327.85l12.64 21.57-25.46-.1zM279.75 719.75c0 10.9-8.84 19.75-19.75 19.75-10.9 0-19.75-8.84-19.75-19.75 0-10.9 8.84-19.75 19.75-19.75 10.9 0 19.75 8.84 19.75 19.75z" stroke="#000" stroke-width="2" fill="#fff"/><path d="M220 705c0-2.76 2.24-5 5-5h70c2.76 0 5 2.24 5 5v148c0 2.76-2.24 5-5 5h-70c-2.76 0-5-2.24-5-5z" fill="none"/><path d="M260 739.5v50.3c0 2.76 1.2 6.9 2.67 9.22L300 858m-40-63.2L220 858m0-98.75h80" stroke="#000" stroke-width="2" fill="none"/><use xlink:href="#f" transform="matrix(1,0,0,1,140,858) translate(73.1 14.6)"/><path d="M259.93 698L235.5 346.2" stroke="#000" stroke-width="2" fill="none"/><path d="M261 699.12l-.95-.12-1.05.03-.07-.98 2-.14z"/><path d="M233.93 323.73l14.2 20.58-25.4 1.78z" stroke="#000" stroke-width="2" fill="#fff"/><path d="M480 37c0-2.76 2.24-5 5-5h750c2.76 0 5 2.24 5 5v1210c0 2.76-2.24 5-5 5H485c-2.76 0-5-2.24-5-5z" stroke="#000" stroke-width="2" fill="none"/><use xlink:href="#g" transform="matrix(1,0,0,1,488,40) translate(346.525 15.6)"/><path d="M1140 212c0 33.14-35.82 60-80 60s-80-26.86-80-60 35.82-60 80-60 80 26.86 80 60z" stroke="#000" stroke-width="2" fill="#fff"/><use xlink:href="#h" transform="matrix(1,0,0,1,980,152) translate(11.079999999999993 63.15)"/><use xlink:href="#i" transform="matrix(1,0,0,1,980,152) translate(62.029999999999994 63.15)"/><use xlink:href="#d" transform="matrix(1,0,0,1,980,152) translate(87.03 63.15)"/><path d="M680 282c0 33.14-35.82 60-80 60s-80-26.86-80-60 35.82-60 80-60 80 26.86 80 60z" stroke="#000" stroke-width="2" fill="#fff"/><use xlink:href="#j" transform="matrix(1,0,0,1,520,222) translate(43.57999999999999 51.9)"/><use xlink:href="#k" transform="matrix(1,0,0,1,520,222) translate(28.029999999999994 73.5)"/><path d="M840 217c0-2.76 2.24-5 5-5h90c2.76 0 5 2.24 5 5v30c0 2.76-2.24 5-5 5h-90c-2.76 0-5-2.24-5-5z" fill-opacity="0"/><use xlink:href="#l" transform="matrix(1,0,0,1,840,211.99999999999997) translate(9.671666666666669 23.166666666666668)"/><use xlink:href="#m" transform="matrix(1,0,0,1,840,211.99999999999997) translate(28.930925925925926 23.166666666666668)"/><use xlink:href="#n" transform="matrix(1,0,0,1,840,211.99999999999997) translate(74.78277777777777 23.166666666666668)"/><path d="M1058.2 150.8L682 112.1" fill="none"/><path d="M1058.2 150.8l-9.65-.98m-9.65-1l-19.3-1.98m-9.64-1l-19.3-1.97m-9.64-1l-19.3-1.98m-9.64-1l-19.3-2m-9.63-.98l-19.3-2m-9.64-.98l-19.28-2m-9.65-.98l-19.3-1.98m-9.64-1l-19.3-1.98m-9.64-1l-19.3-1.98m-9.64-1l-19.3-1.98m-9.64-1l-19.3-1.97m-9.64-1l-19.3-1.98m-9.64-1l-9.65-1M1039.88 159.16l18.17-8.36-16.1-11.9" stroke="#000" stroke-width="2" fill="none"/><path d="M682.12 111.1l-.2 2-.95-.1.03-1v-.4l-.03-.6z"/><path d="M680 77c0-2.76 2.24-5 5-5h90c2.76 0 5 2.24 5 5v30c0 2.76-2.24 5-5 5h-90c-2.76 0-5-2.24-5-5z" fill-opacity="0"/><use xlink:href="#l" transform="matrix(1,0,0,1,680,72) translate(10.745740740740745 23.166666666666668)"/><use xlink:href="#o" transform="matrix(1,0,0,1,680,72) translate(30.005000000000003 23.166666666666668)"/><use xlink:href="#n" transform="matrix(1,0,0,1,680,72) translate(73.70870370370369 23.166666666666668)"/><path d="M680 487c0 33.14-35.82 60-80 60s-80-26.86-80-60 35.82-60 80-60 80 26.86 80 60z" stroke="#000" stroke-width="2" fill="#fff"/><use xlink:href="#p" transform="matrix(1,0,0,1,520,427.00000000000006) translate(44.07999999999999 51.9)"/><use xlink:href="#k" transform="matrix(1,0,0,1,520,427.00000000000006) translate(28.029999999999994 73.5)"/><path d="M600 425v-80.18" fill="none"/><path d="M600 425v-8.9m0-8.92v-17.82m0-8.9v-17.82m0-8.9v-8.92" stroke="#000" stroke-width="2" fill="none"/><path d="M601 426.03l-1-.03h-1v-1.03h2z"/><path d="M610.18 362.18L600 344.96l-10.18 17.22" stroke="#000" stroke-width="2" fill="none"/><path d="M500 392c0-2.76 2.24-5 5-5h90c2.76 0 5 2.24 5 5v30c0 2.76-2.24 5-5 5h-90c-2.76 0-5-2.24-5-5z" fill-opacity="0"/><use xlink:href="#l" transform="matrix(1,0,0,1,500,387) translate(9.671666666666669 23.166666666666668)"/><use xlink:href="#m" transform="matrix(1,0,0,1,500,387) translate(28.930925925925926 23.166666666666668)"/><use xlink:href="#n" transform="matrix(1,0,0,1,500,387) translate(74.78277777777777 23.166666666666668)"/><path d="M680.4 269.77l298.4-45.4" fill="none"/><path d="M680.4 269.77l9.94-1.52m9.95-1.5l19.88-3.04m9.95-1.5l19.9-3.03m9.94-1.5l19.9-3.04m9.94-1.5l19.9-3.04m9.95-1.52l19.9-3.03m9.94-1.52l19.88-3.02m9.95-1.5l19.9-3.03m9.94-1.52l19.9-3.02m9.94-1.52l19.9-3.02m9.95-1.5l9.94-1.52" stroke="#000" stroke-width="2" fill="none"/><path d="M680.57 270.75l-.93.14-.2-.88-.32-1.07 1.15-.18z"/><path d="M963.16 237.03l15.5-12.65-18.56-7.48M190 260.07l328 21.86M190.04 260.07l-4.02-.27" stroke="#000" stroke-width="2" fill="none"/><path d="M519.03 281l-.03 1v.4l.03.6-1.12-.07.14-2z"/><path d="M191.85 260.57l326.33 225.86M191.87 260.58l-3.3-2.3" stroke="#000" stroke-width="2" fill="none"/><path d="M519.04 485.8L519 487v.4l.03.84-1.44-1 1.13-1.65z"/><path d="M660.88 445.6l397.45-171.88" fill="none"/><path d="M660.88 445.6l9.47-4.1m9.46-4.1l18.94-8.17m9.46-4.1l18.93-8.18m9.46-4.1l18.9-8.18m9.48-4.1l18.92-8.17m9.47-4.1l18.92-8.18m9.46-4.1l18.92-8.18m9.46-4.1l18.93-8.17m9.46-4.1l18.93-8.18m9.46-4.1l18.93-8.2m9.46-4.08l18.94-8.18m9.46-4.1l18.93-8.18m9.46-4.1l18.92-8.18m9.46-4.1l18.93-8.17m9.47-4.1l9.46-4.08" stroke="#000" stroke-width="2" fill="none"/><path d="M661.3 446.5l-.5.22-1.08-.94-.64-.5 1.43-.6zM1040.13 271.15l6.43 1.02 6.63.62 6.8.2-12.75 17.55-1.62-1.18 10.76-14.8-18.17-2.3.2-1.5z"/><path d="M985.2 317c0-2.76 2.24-5 5-5h90c2.76 0 5 2.24 5 5v30c0 2.76-2.24 5-5 5h-90c-2.76 0-5-2.24-5-5z" fill-opacity="0"/><use xlink:href="#l" transform="matrix(1,0,0,1,985.1999999999998,312) translate(9.671666666666669 23.166666666666668)"/><use xlink:href="#m" transform="matrix(1,0,0,1,985.1999999999998,312) translate(28.930925925925926 23.166666666666668)"/><use xlink:href="#n" transform="matrix(1,0,0,1,985.1999999999998,312) translate(74.78277777777777 23.166666666666668)"/><path d="M191.94 259.6L518.1 112.4M191.96 259.58l-3.67 1.65" stroke="#000" stroke-width="2" fill="none"/><path d="M519 112v.4l.03.68-.55.25-.83-1.82 1.38-.6z"/><path d="M1140 487c0 33.14-35.82 60-80 60s-80-26.86-80-60 35.82-60 80-60 80 26.86 80 60z" stroke="#000" stroke-width="2" fill="#fff"/><use xlink:href="#q" transform="matrix(1,0,0,1,980,427.00000000000006) translate(14.654999999999996 51.9)"/><use xlink:href="#r" transform="matrix(1,0,0,1,980,427.00000000000006) translate(45.55499999999999 73.5)"/><path d="M978.13 486.5l-175.9-97.72c1.35-2.4.48-5.45-1.93-6.8-2.4-1.34-5.46-.47-6.8 1.95l-123.36-68.55" fill="none"/><path d="M978.13 486.5l-8.38-4.64m-8.38-4.65l-16.75-9.3m-8.37-4.65l-16.75-9.3m-8.38-4.67l-16.75-9.3m-8.37-4.66l-16.76-9.3m-8.37-4.66l-16.75-9.3m-8.38-4.66L819 398.1m-8.38-4.66l-8.38-4.66.63-2.23-.42-2.2-1.36-1.83-.8-.54-2.24-.62-2.2.42-1.82 1.36-.54.8-8.22-4.58m-8.23-4.57l-16.45-9.15m-8.22-4.57l-16.45-9.14m-8.22-4.57l-16.44-9.14m-8.22-4.57l-16.45-9.14m-8.24-4.57l-8.22-4.57" stroke="#000" stroke-width="2" fill="none"/><path d="M979.03 485.88l-.03 1.1v.42l.03.76-1.4-.78.96-1.75z"/><path d="M690.26 314.92l-20 .53 10.1 17.26" stroke="#000" stroke-width="2" fill="none"/><path d="M885.2 417c0-2.76 2.24-5 5-5h90c2.76 0 5 2.24 5 5v30c0 2.76-2.24 5-5 5h-90c-2.76 0-5-2.24-5-5z" fill-opacity="0"/><use xlink:href="#l" transform="matrix(1,0,0,1,885.1999999999999,411.99999999999994) translate(10.745740740740745 23.166666666666668)"/><use xlink:href="#o" transform="matrix(1,0,0,1,885.1999999999999,411.99999999999994) translate(30.005000000000003 23.166666666666668)"/><use xlink:href="#n" transform="matrix(1,0,0,1,885.1999999999999,411.99999999999994) translate(73.70870370370369 23.166666666666668)"/><path d="M680 1102c0 33.14-35.82 60-80 60s-80-26.86-80-60 35.82-60 80-60 80 26.86 80 60z" stroke="#000" stroke-width="2" fill="#fff"/><use xlink:href="#s" transform="matrix(1,0,0,1,520,1042) translate(45.254999999999995 51.9)"/><use xlink:href="#t" transform="matrix(1,0,0,1,520,1042) translate(104.755 51.9)"/><use xlink:href="#u" transform="matrix(1,0,0,1,520,1042) translate(39.05499999999999 73.5)"/><path d="M142.02 1109.98l375.98-7.96M142.05 1109.98l-4.03.08" stroke="#000" stroke-width="2" fill="none"/><path d="M519 1102v.4l.03.6-1.03.02-.05-2 1.08-.02z"/><path d="M680 712c0 33.14-35.82 60-80 60s-80-26.86-80-60 35.82-60 80-60 80 26.86 80 60z" stroke="#000" stroke-width="2" fill="#fff"/><g><use xlink:href="#v" transform="matrix(1,0,0,1,520,651.9999999999999) translate(17.654999999999994 63.15)"/><use xlink:href="#w" transform="matrix(1,0,0,1,520,651.9999999999999) translate(68.555 63.15)"/></g><path d="M680 872c0 33.14-35.82 60-80 60s-80-26.86-80-60 35.82-60 80-60 80 26.86 80 60z" stroke="#000" stroke-width="2" fill="#fff"/><g><use xlink:href="#x" transform="matrix(1,0,0,1,520,812) translate(9.104999999999999 63.15)"/><use xlink:href="#y" transform="matrix(1,0,0,1,520,812) translate(65.005 63.15)"/></g><path d="M259.97 789.7l258.07-77.4M260 789.7l-3.86 1.16" stroke="#000" stroke-width="2" fill="none"/><path d="M519 712v.4l.03.64-.73.2-.57-1.9 1.3-.4z"/><path d="M261.97 790.3l256.08 81.4M262 790.3l-3.84-1.2" stroke="#000" stroke-width="2" fill="none"/><path d="M519.03 870.96L519 872v.4l.03.66-1.3-.42.6-1.9z"/><path d="M960 792c0 33.14-35.82 60-80 60s-80-26.86-80-60 35.82-60 80-60 80 26.86 80 60z" stroke="#000" stroke-width="2" fill="#fff"/><g><use xlink:href="#z" transform="matrix(1,0,0,1,800,732) translate(40.57999999999999 51.9)"/><use xlink:href="#A" transform="matrix(1,0,0,1,800,732) translate(47.05499999999999 73.5)"/></g><path d="M260 790l538 2M260.04 790H256" stroke="#000" stroke-width="2" fill="none"/><path d="M799.03 791l-.03 1v.4l.03.6h-1.06v-2z"/><defs><path d="M232-93c-1 65-40 97-104 97C67 4 28-28 28-90v-158h33c8 89-33 224 67 224 102 0 64-133 71-224h33v155" id="B"/><path d="M135-143c-3-34-86-38-87 0 15 53 115 12 119 90S17 21 10-45l28-5c4 36 97 45 98 0-10-56-113-15-118-90-4-57 82-63 122-42 12 7 21 19 24 35" id="C"/><path d="M84 4C-5 8 30-112 23-190h32v120c0 31 7 50 39 49 72-2 45-101 50-169h31l1 190h-30c-1-10 1-25-2-33-11 22-28 36-60 37" id="D"/><path d="M141-36C126-15 110 5 73 4 37 3 15-17 15-53c-1-64 63-63 125-63 3-35-9-54-41-54-24 1-41 7-42 31l-33-3c5-37 33-52 76-52 45 0 72 20 72 64v82c-1 20 7 32 28 27v20c-31 9-61-2-59-35zM48-53c0 20 12 33 32 33 41-3 63-29 60-74-43 2-92-5-92 41zm25-158c8-23 27-35 38-54h36v5l-58 49H73" id="E"/><path d="M114-163C36-179 61-72 57 0H25l-1-190h30c1 12-1 29 2 39 6-27 23-49 58-41v29" id="F"/><path d="M24-231v-30h32v30H24zM24 0v-190h32V0H24" id="G"/><path d="M100-194c62-1 85 37 85 99 1 63-27 99-86 99S16-35 15-95c0-66 28-99 85-99zM99-20c44 1 53-31 53-75 0-43-8-75-51-75s-53 32-53 75 10 74 51 75" id="H"/><g id="a"><use transform="matrix(0.05,0,0,0.05,0,0)" xlink:href="#B"/><use transform="matrix(0.05,0,0,0.05,12.950000000000001,0)" xlink:href="#C"/><use transform="matrix(0.05,0,0,0.05,21.950000000000003,0)" xlink:href="#D"/><use transform="matrix(0.05,0,0,0.05,31.950000000000003,0)" xlink:href="#E"/><use transform="matrix(0.05,0,0,0.05,41.95,0)" xlink:href="#F"/><use transform="matrix(0.05,0,0,0.05,47.900000000000006,0)" xlink:href="#G"/><use transform="matrix(0.05,0,0,0.05,51.85,0)" xlink:href="#H"/></g><path d="M212-179c-10-28-35-45-73-45-59 0-87 40-87 99 0 60 29 101 89 101 43 0 62-24 78-52l27 14C228-24 195 4 139 4 59 4 22-46 18-125c-6-104 99-153 187-111 19 9 31 26 39 46" id="I"/><path d="M141-36C126-15 110 5 73 4 37 3 15-17 15-53c-1-64 63-63 125-63 3-35-9-54-41-54-24 1-41 7-42 31l-33-3c5-37 33-52 76-52 45 0 72 20 72 64v82c-1 20 7 32 28 27v20c-31 9-61-2-59-35zM48-53c0 20 12 33 32 33 41-3 63-29 60-74-43 2-92-5-92 41" id="J"/><path d="M85-194c31 0 48 13 60 33l-1-100h32l1 261h-30c-2-10 0-23-3-31C134-8 116 4 85 4 32 4 16-35 15-94c0-66 23-100 70-100zm9 24c-40 0-46 34-46 75 0 40 6 74 45 74 42 0 51-32 51-76 0-42-9-74-50-73" id="K"/><path d="M59-47c-2 24 18 29 38 22v24C64 9 27 4 27-40v-127H5v-23h24l9-43h21v43h35v23H59v120" id="L"/><g id="b"><use transform="matrix(0.05,0,0,0.05,0,0)" xlink:href="#I"/><use transform="matrix(0.05,0,0,0.05,12.950000000000001,0)" xlink:href="#J"/><use transform="matrix(0.05,0,0,0.05,22.950000000000003,0)" xlink:href="#K"/><use transform="matrix(0.05,0,0,0.05,32.95,0)" xlink:href="#J"/><use transform="matrix(0.05,0,0,0.05,42.95,0)" xlink:href="#C"/><use transform="matrix(0.05,0,0,0.05,51.95,0)" xlink:href="#L"/><use transform="matrix(0.05,0,0,0.05,56.95,0)" xlink:href="#F"/><use transform="matrix(0.05,0,0,0.05,62.900000000000006,0)" xlink:href="#J"/><use transform="matrix(0.05,0,0,0.05,72.9,0)" xlink:href="#F"/></g><path d="M117-194c89-4 53 116 60 194h-32v-121c0-31-8-49-39-48C34-167 62-67 57 0H25l-1-190h30c1 10-1 24 2 32 11-22 29-35 61-36" id="M"/><g id="c"><use transform="matrix(0.05,0,0,0.05,0,0)" xlink:href="#M"/><use transform="matrix(0.05,0,0,0.05,10,0)" xlink:href="#H"/></g><path d="M100-194c63 0 86 42 84 106H49c0 40 14 67 53 68 26 1 43-12 49-29l28 8c-11 28-37 45-77 45C44 4 14-33 15-96c1-61 26-98 85-98zm52 81c6-60-76-77-97-28-3 7-6 17-6 28h103" id="N"/><path d="M210-169c-67 3-38 105-44 169h-31v-121c0-29-5-50-35-48C34-165 62-65 56 0H25l-1-190h30c1 10-1 24 2 32 10-44 99-50 107 0 11-21 27-35 58-36 85-2 47 119 55 194h-31v-121c0-29-5-49-35-48" id="O"/><g id="d"><use transform="matrix(0.05,0,0,0.05,0,0)" xlink:href="#C"/><use transform="matrix(0.05,0,0,0.05,9,0)" xlink:href="#G"/><use transform="matrix(0.05,0,0,0.05,12.949999999999998,0)" xlink:href="#C"/><use transform="matrix(0.05,0,0,0.05,21.95,0)" xlink:href="#L"/><use transform="matrix(0.05,0,0,0.05,26.950000000000003,0)" xlink:href="#N"/><use transform="matrix(0.05,0,0,0.05,36.95,0)" xlink:href="#O"/><use transform="matrix(0.05,0,0,0.05,51.900000000000006,0)" xlink:href="#J"/></g><path d="M24 0v-261h32V0H24" id="P"/><g id="e"><use transform="matrix(0.05,0,0,0.05,0,0)" xlink:href="#I"/><use transform="matrix(0.05,0,0,0.05,12.950000000000001,0)" xlink:href="#P"/><use transform="matrix(0.05,0,0,0.05,16.900000000000002,0)" xlink:href="#G"/><use transform="matrix(0.05,0,0,0.05,20.85,0)" xlink:href="#N"/><use transform="matrix(0.05,0,0,0.05,30.85,0)" xlink:href="#M"/><use transform="matrix(0.05,0,0,0.05,40.85,0)" xlink:href="#L"/><use transform="matrix(0.05,0,0,0.05,45.85,0)" xlink:href="#N"/></g><path d="M63-220v92h138v28H63V0H30v-248h175v28H63" id="Q"/><path d="M96-169c-40 0-48 33-48 73s9 75 48 75c24 0 41-14 43-38l32 2c-6 37-31 61-74 61-59 0-76-41-82-99-10-93 101-131 147-64 4 7 5 14 7 22l-32 3c-4-21-16-35-41-35" id="R"/><g id="f"><use transform="matrix(0.05,0,0,0.05,0,0)" xlink:href="#Q"/><use transform="matrix(0.05,0,0,0.05,10.950000000000001,0)" xlink:href="#D"/><use transform="matrix(0.05,0,0,0.05,20.950000000000003,0)" xlink:href="#M"/><use transform="matrix(0.05,0,0,0.05,30.950000000000003,0)" xlink:href="#R"/><use transform="matrix(0.05,0,0,0.05,39.95,0)" xlink:href="#G"/><use transform="matrix(0.05,0,0,0.05,43.900000000000006,0)" xlink:href="#H"/><use transform="matrix(0.05,0,0,0.05,53.900000000000006,0)" xlink:href="#M"/><use transform="matrix(0.05,0,0,0.05,63.900000000000006,0)" xlink:href="#E"/><use transform="matrix(0.05,0,0,0.05,73.9,0)" xlink:href="#F"/><use transform="matrix(0.05,0,0,0.05,79.85000000000001,0)" xlink:href="#G"/><use transform="matrix(0.05,0,0,0.05,83.80000000000001,0)" xlink:href="#H"/></g><g id="g"><use transform="matrix(0.05,0,0,0.05,0,0)" xlink:href="#I"/><use transform="matrix(0.05,0,0,0.05,12.950000000000001,0)" xlink:href="#J"/><use transform="matrix(0.05,0,0,0.05,22.950000000000003,0)" xlink:href="#C"/><use transform="matrix(0.05,0,0,0.05,31.950000000000003,0)" xlink:href="#H"/><use transform="matrix(0.05,0,0,0.05,41.95,0)" xlink:href="#C"/></g><path d="M30 0v-248h33v221h125V0H30" id="S"/><path d="M177-190C167-65 218 103 67 71c-23-6-38-20-44-43l32-5c15 47 100 32 89-28v-30C133-14 115 1 83 1 29 1 15-40 15-95c0-56 16-97 71-98 29-1 48 16 59 35 1-10 0-23 2-32h30zM94-22c36 0 50-32 50-73 0-42-14-75-50-75-39 0-46 34-46 75s6 73 46 73" id="T"/><g id="h"><use transform="matrix(0.05,0,0,0.05,0,0)" xlink:href="#S"/><use transform="matrix(0.05,0,0,0.05,10,0)" xlink:href="#H"/><use transform="matrix(0.05,0,0,0.05,20,0)" xlink:href="#T"/><use transform="matrix(0.05,0,0,0.05,30,0)" xlink:href="#J"/><use transform="matrix(0.05,0,0,0.05,40,0)" xlink:href="#F"/></g><g id="i"><use transform="matrix(0.05,0,0,0.05,0,0)" xlink:href="#M"/><use transform="matrix(0.05,0,0,0.05,10,0)" xlink:href="#H"/></g><path d="M233-177c-1 41-23 64-60 70L243 0h-38l-65-103H63V0H30v-248c88 3 205-21 203 71zM63-129c60-2 137 13 137-47 0-61-80-42-137-45v92" id="U"/><path d="M108 0H70L1-190h34L89-25l56-165h34" id="V"/><g id="j"><use transform="matrix(0.05,0,0,0.05,0,0)" xlink:href="#U"/><use transform="matrix(0.05,0,0,0.05,12.950000000000001,0)" xlink:href="#N"/><use transform="matrix(0.05,0,0,0.05,22.950000000000003,0)" xlink:href="#C"/><use transform="matrix(0.05,0,0,0.05,31.950000000000003,0)" xlink:href="#N"/><use transform="matrix(0.05,0,0,0.05,41.95,0)" xlink:href="#F"/><use transform="matrix(0.05,0,0,0.05,47.900000000000006,0)" xlink:href="#V"/><use transform="matrix(0.05,0,0,0.05,56.900000000000006,0)" xlink:href="#J"/><use transform="matrix(0.05,0,0,0.05,66.9,0)" xlink:href="#F"/></g><path d="M106-169C34-169 62-67 57 0H25v-261h32l-1 103c12-21 28-36 61-36 89 0 53 116 60 194h-32v-121c2-32-8-49-39-48" id="W"/><path d="M115-194c55 1 70 41 70 98S169 2 115 4C84 4 66-9 55-30l1 105H24l-1-265h31l2 30c10-21 28-34 59-34zm-8 174c40 0 45-34 45-75s-6-73-45-74c-42 0-51 32-51 76 0 43 10 73 51 73" id="X"/><g id="k"><use transform="matrix(0.05,0,0,0.05,0,0)" xlink:href="#W"/><use transform="matrix(0.05,0,0,0.05,10,0)" xlink:href="#H"/><use transform="matrix(0.05,0,0,0.05,20,0)" xlink:href="#C"/><use transform="matrix(0.05,0,0,0.05,29,0)" xlink:href="#X"/><use transform="matrix(0.05,0,0,0.05,39,0)" xlink:href="#N"/><use transform="matrix(0.05,0,0,0.05,49,0)" xlink:href="#K"/><use transform="matrix(0.05,0,0,0.05,59,0)" xlink:href="#J"/><use transform="matrix(0.05,0,0,0.05,69,0)" xlink:href="#T"/><use transform="matrix(0.05,0,0,0.05,79,0)" xlink:href="#N"/><use transform="matrix(0.05,0,0,0.05,89,0)" xlink:href="#O"/></g><path d="M18-100v-36l175-74v27L42-118l151 64v27" id="Y"/><g id="l"><use transform="matrix(0.03703703703703704,0,0,0.03703703703703704,0,0)" xlink:href="#Y"/><use transform="matrix(0.03703703703703704,0,0,0.03703703703703704,7.777777777777779,0)" xlink:href="#Y"/></g><g id="m"><use transform="matrix(0.03703703703703704,0,0,0.03703703703703704,0,0)" xlink:href="#G"/><use transform="matrix(0.03703703703703704,0,0,0.03703703703703704,2.9259259259259265,0)" xlink:href="#M"/><use transform="matrix(0.03703703703703704,0,0,0.03703703703703704,10.333333333333334,0)" xlink:href="#R"/><use transform="matrix(0.03703703703703704,0,0,0.03703703703703704,17.000000000000004,0)" xlink:href="#P"/><use transform="matrix(0.03703703703703704,0,0,0.03703703703703704,19.925925925925934,0)" xlink:href="#D"/><use transform="matrix(0.03703703703703704,0,0,0.03703703703703704,27.333333333333343,0)" xlink:href="#K"/><use transform="matrix(0.03703703703703704,0,0,0.03703703703703704,34.74074074074075,0)" xlink:href="#N"/></g><path d="M18-27v-27l151-64-151-65v-27l175 74v36" id="Z"/><g id="n"><use transform="matrix(0.03703703703703704,0,0,0.03703703703703704,0,0)" xlink:href="#Z"/><use transform="matrix(0.03703703703703704,0,0,0.03703703703703704,7.777777777777779,0)" xlink:href="#Z"/></g><path d="M141 0L90-78 38 0H4l68-98-65-92h35l48 74 47-74h35l-64 92 68 98h-35" id="aa"/><g id="o"><use transform="matrix(0.03703703703703704,0,0,0.03703703703703704,0,0)" xlink:href="#N"/><use transform="matrix(0.03703703703703704,0,0,0.03703703703703704,7.407407407407408,0)" xlink:href="#aa"/><use transform="matrix(0.03703703703703704,0,0,0.03703703703703704,14.074074074074076,0)" xlink:href="#L"/><use transform="matrix(0.03703703703703704,0,0,0.03703703703703704,17.77777777777778,0)" xlink:href="#N"/><use transform="matrix(0.03703703703703704,0,0,0.03703703703703704,25.185185185185187,0)" xlink:href="#M"/><use transform="matrix(0.03703703703703704,0,0,0.03703703703703704,32.592592592592595,0)" xlink:href="#K"/></g><g id="p"><use transform="matrix(0.05,0,0,0.05,0,0)" xlink:href="#I"/><use transform="matrix(0.05,0,0,0.05,12.950000000000001,0)" xlink:href="#J"/><use transform="matrix(0.05,0,0,0.05,22.950000000000003,0)" xlink:href="#M"/><use transform="matrix(0.05,0,0,0.05,32.95,0)" xlink:href="#R"/><use transform="matrix(0.05,0,0,0.05,41.95,0)" xlink:href="#N"/><use transform="matrix(0.05,0,0,0.05,51.95,0)" xlink:href="#P"/><use transform="matrix(0.05,0,0,0.05,55.900000000000006,0)" xlink:href="#J"/><use transform="matrix(0.05,0,0,0.05,65.9,0)" xlink:href="#F"/></g><path d="M205 0l-28-72H64L36 0H1l101-248h38L239 0h-34zm-38-99l-47-123c-12 45-31 82-46 123h93" id="ab"/><path d="M0 4l72-265h28L28 4H0" id="ac"/><g id="q"><use transform="matrix(0.05,0,0,0.05,0,0)" xlink:href="#ab"/><use transform="matrix(0.05,0,0,0.05,12,0)" xlink:href="#K"/><use transform="matrix(0.05,0,0,0.05,22,0)" xlink:href="#G"/><use transform="matrix(0.05,0,0,0.05,25.950000000000003,0)" xlink:href="#R"/><use transform="matrix(0.05,0,0,0.05,34.95,0)" xlink:href="#G"/><use transform="matrix(0.05,0,0,0.05,38.900000000000006,0)" xlink:href="#H"/><use transform="matrix(0.05,0,0,0.05,48.900000000000006,0)" xlink:href="#M"/><use transform="matrix(0.05,0,0,0.05,58.900000000000006,0)" xlink:href="#J"/><use transform="matrix(0.05,0,0,0.05,68.9,0)" xlink:href="#F"/><use transform="matrix(0.05,0,0,0.05,74.85000000000001,0)" xlink:href="#ac"/><use transform="matrix(0.05,0,0,0.05,79.85000000000001,0)" xlink:href="#J"/><use transform="matrix(0.05,0,0,0.05,89.85000000000001,0)" xlink:href="#P"/><use transform="matrix(0.05,0,0,0.05,93.80000000000001,0)" xlink:href="#L"/><use transform="matrix(0.05,0,0,0.05,98.80000000000001,0)" xlink:href="#N"/><use transform="matrix(0.05,0,0,0.05,108.80000000000001,0)" xlink:href="#F"/><use transform="matrix(0.05,0,0,0.05,114.75,0)" xlink:href="#J"/><use transform="matrix(0.05,0,0,0.05,124.75,0)" xlink:href="#F"/></g><path d="M185-189c-5-48-123-54-124 2 14 75 158 14 163 119 3 78-121 87-175 55-17-10-28-26-33-46l33-7c5 56 141 63 141-1 0-78-155-14-162-118-5-82 145-84 179-34 5 7 8 16 11 25" id="ad"/><path d="M96-169c-40 0-48 33-48 73s9 75 48 75c24 0 41-14 43-38l32 2c-6 37-31 61-74 61-59 0-76-41-82-99-10-93 101-131 147-64 4 7 5 14 7 22l-32 3c-4-21-16-35-41-35zm3 187c19-1 33 8 33 26 0 31-30 33-64 32V58c18 2 39 4 41-13 1-15-18-13-34-13L87 0h19" id="ae"/><g id="r"><use transform="matrix(0.05,0,0,0.05,0,0)" xlink:href="#ad"/><use transform="matrix(0.05,0,0,0.05,12,0)" xlink:href="#N"/><use transform="matrix(0.05,0,0,0.05,22,0)" xlink:href="#F"/><use transform="matrix(0.05,0,0,0.05,27.950000000000003,0)" xlink:href="#V"/><use transform="matrix(0.05,0,0,0.05,36.95,0)" xlink:href="#G"/><use transform="matrix(0.05,0,0,0.05,40.900000000000006,0)" xlink:href="#ae"/><use transform="matrix(0.05,0,0,0.05,49.900000000000006,0)" xlink:href="#H"/><use transform="matrix(0.05,0,0,0.05,59.900000000000006,0)" xlink:href="#C"/></g><g id="s"><use transform="matrix(0.05,0,0,0.05,0,0)" xlink:href="#ab"/><use transform="matrix(0.05,0,0,0.05,11.65,0)" xlink:href="#V"/><use transform="matrix(0.05,0,0,0.05,20.65,0)" xlink:href="#J"/><use transform="matrix(0.05,0,0,0.05,30.649999999999995,0)" xlink:href="#P"/><use transform="matrix(0.05,0,0,0.05,34.6,0)" xlink:href="#G"/><use transform="matrix(0.05,0,0,0.05,38.550000000000004,0)" xlink:href="#J"/><use transform="matrix(0.05,0,0,0.05,48.550000000000004,0)" xlink:href="#F"/></g><use transform="matrix(0.05,0,0,0.05,0,0)" xlink:href="#H" id="t"/><path d="M9 0v-24l116-142H16v-24h144v24L44-24h123V0H9" id="af"/><g id="u"><use transform="matrix(0.05,0,0,0.05,0,0)" xlink:href="#W"/><use transform="matrix(0.05,0,0,0.05,10,0)" xlink:href="#H"/><use transform="matrix(0.05,0,0,0.05,20,0)" xlink:href="#L"/><use transform="matrix(0.05,0,0,0.05,25,0)" xlink:href="#N"/><use transform="matrix(0.05,0,0,0.05,35,0)" xlink:href="#P"/><use transform="matrix(0.05,0,0,0.05,38.95,0)" xlink:href="#af"/><use transform="matrix(0.05,0,0,0.05,47.95,0)" xlink:href="#G"/><use transform="matrix(0.05,0,0,0.05,51.900000000000006,0)" xlink:href="#M"/><use transform="matrix(0.05,0,0,0.05,61.900000000000006,0)" xlink:href="#W"/><use transform="matrix(0.05,0,0,0.05,71.9,0)" xlink:href="#H"/></g><path d="M143 4C61 4 22-44 18-125c-5-107 100-154 193-111 17 8 29 25 37 43l-32 9c-13-25-37-40-76-40-61 0-88 39-88 99 0 61 29 100 91 101 35 0 62-11 79-27v-45h-74v-28h105v86C228-13 192 4 143 4" id="ag"/><g id="v"><use transform="matrix(0.05,0,0,0.05,0,0)" xlink:href="#ag"/><use transform="matrix(0.05,0,0,0.05,14,0)" xlink:href="#N"/><use transform="matrix(0.05,0,0,0.05,24,0)" xlink:href="#F"/><use transform="matrix(0.05,0,0,0.05,29.950000000000003,0)" xlink:href="#J"/><use transform="matrix(0.05,0,0,0.05,39.95,0)" xlink:href="#F"/></g><path d="M100-194c62-1 85 37 85 99 1 63-27 99-86 99S16-35 15-95c0-66 28-99 85-99zM99-20c44 1 53-31 53-75 0-43-8-75-51-75s-53 32-53 75 10 74 51 75zM76-211c8-23 27-35 38-54h36v5l-58 49H76" id="ah"/><g id="w"><use transform="matrix(0.05,0,0,0.05,0,0)" xlink:href="#F"/><use transform="matrix(0.05,0,0,0.05,5.95,0)" xlink:href="#N"/><use transform="matrix(0.05,0,0,0.05,15.949999999999998,0)" xlink:href="#P"/><use transform="matrix(0.05,0,0,0.05,19.9,0)" xlink:href="#J"/><use transform="matrix(0.05,0,0,0.05,29.899999999999995,0)" xlink:href="#L"/><use transform="matrix(0.05,0,0,0.05,34.9,0)" xlink:href="#ah"/><use transform="matrix(0.05,0,0,0.05,44.9,0)" xlink:href="#F"/><use transform="matrix(0.05,0,0,0.05,50.85,0)" xlink:href="#G"/><use transform="matrix(0.05,0,0,0.05,54.800000000000004,0)" xlink:href="#H"/><use transform="matrix(0.05,0,0,0.05,64.80000000000001,0)" xlink:href="#C"/></g><path d="M30 0v-248h187v28H63v79h144v27H63v87h162V0H30" id="ai"/><g id="x"><use transform="matrix(0.05,0,0,0.05,0,0)" xlink:href="#ai"/><use transform="matrix(0.05,0,0,0.05,12,0)" xlink:href="#M"/><use transform="matrix(0.05,0,0,0.05,22,0)" xlink:href="#V"/><use transform="matrix(0.05,0,0,0.05,31,0)" xlink:href="#G"/><use transform="matrix(0.05,0,0,0.05,34.95,0)" xlink:href="#J"/><use transform="matrix(0.05,0,0,0.05,44.95,0)" xlink:href="#F"/></g><path d="M141-36C126-15 110 5 73 4 37 3 15-17 15-53c-1-64 63-63 125-63 3-35-9-54-41-54-24 1-41 7-42 31l-33-3c5-37 33-52 76-52 45 0 72 20 72 64v82c-1 20 7 32 28 27v20c-31 9-61-2-59-35zM48-53c0 20 12 33 32 33 41-3 63-29 60-74-43 2-92-5-92 41zm117-205c-3 23-9 48-36 47-26-1-65-44-74 0H39c4-23 8-48 36-47s64 44 74 0h16" id="aj"/><g id="y"><use transform="matrix(0.05,0,0,0.05,0,0)" xlink:href="#K"/><use transform="matrix(0.05,0,0,0.05,10,0)" xlink:href="#G"/><use transform="matrix(0.05,0,0,0.05,13.949999999999998,0)" xlink:href="#V"/><use transform="matrix(0.05,0,0,0.05,22.95,0)" xlink:href="#D"/><use transform="matrix(0.05,0,0,0.05,32.95,0)" xlink:href="#P"/><use transform="matrix(0.05,0,0,0.05,36.900000000000006,0)" xlink:href="#T"/><use transform="matrix(0.05,0,0,0.05,46.900000000000006,0)" xlink:href="#J"/><use transform="matrix(0.05,0,0,0.05,56.900000000000006,0)" xlink:href="#ae"/><use transform="matrix(0.05,0,0,0.05,65.9,0)" xlink:href="#aj"/><use transform="matrix(0.05,0,0,0.05,75.9,0)" xlink:href="#H"/></g><g id="z"><use transform="matrix(0.05,0,0,0.05,0,0)" xlink:href="#ag"/><use transform="matrix(0.05,0,0,0.05,14,0)" xlink:href="#N"/><use transform="matrix(0.05,0,0,0.05,24,0)" xlink:href="#F"/><use transform="matrix(0.05,0,0,0.05,29.950000000000003,0)" xlink:href="#N"/><use transform="matrix(0.05,0,0,0.05,39.95,0)" xlink:href="#M"/><use transform="matrix(0.05,0,0,0.05,49.95,0)" xlink:href="#R"/><use transform="matrix(0.05,0,0,0.05,58.95,0)" xlink:href="#G"/><use transform="matrix(0.05,0,0,0.05,62.900000000000006,0)" xlink:href="#J"/><use transform="matrix(0.05,0,0,0.05,72.9,0)" xlink:href="#F"/></g><g id="A"><use transform="matrix(0.05,0,0,0.05,0,0)" xlink:href="#C"/><use transform="matrix(0.05,0,0,0.05,9,0)" xlink:href="#N"/><use transform="matrix(0.05,0,0,0.05,19,0)" xlink:href="#F"/><use transform="matrix(0.05,0,0,0.05,24.95,0)" xlink:href="#V"/><use transform="matrix(0.05,0,0,0.05,33.95,0)" xlink:href="#G"/><use transform="matrix(0.05,0,0,0.05,37.900000000000006,0)" xlink:href="#ae"/><use transform="matrix(0.05,0,0,0.05,46.900000000000006,0)" xlink:href="#H"/><use transform="matrix(0.05,0,0,0.05,56.900000000000006,0)" xlink:href="#C"/></g></defs></g></svg>